<?xml version="1.0" standalone="no"?>
<!DOCTYPE svg PUBLIC "-//W3C//DTD SVG 20010904//EN"
 "http://www.w3.org/TR/2001/REC-SVG-20010904/DTD/svg10.dtd">
<svg version="1.0" xmlns="http://www.w3.org/2000/svg"
 width="128.000000pt" height="128.000000pt" viewBox="0 0 128.000000 128.000000"
 preserveAspectRatio="xMidYMid meet">
<metadata>
Created by potrace 1.14, written by Peter Selinger 2001-2017
</metadata>
<g transform="translate(0.000000,128.000000) scale(0.100000,-0.100000)"
fill="#000000" stroke="none">
<path d="M0 640 l0 -640 640 0 640 0 0 640 0 640 -640 0 -640 0 0 -640z m760
500 c10 -7 -12 -8 -65 -3 -44 3 -82 7 -84 9 -10 9 135 3 149 -6z m-228 -26
c-61 -30 -128 -102 -138 -147 -4 -18 -9 -27 -11 -20 -17 47 121 193 181 193
11 0 -3 -11 -32 -26z m326 -30 c62 -52 112 -163 111 -240 -1 -54 -2 -56 -9
-21 -7 40 -20 61 -20 34 0 -36 -66 -49 -95 -17 -38 42 7 92 70 76 19 -5 25 -3
25 11 0 34 -43 104 -92 148 -59 53 -51 61 10 9z m-481 -176 c-3 -8 -6 -5 -6 6
-1 11 2 17 5 13 3 -3 4 -12 1 -19z m243 -88 c23 -23 24 -33 10 -60 -30 -56
-109 -38 -110 24 0 50 63 73 100 36z m157 -52 c-24 -8 -28 -15 -25 -41 4 -39
30 -57 58 -39 11 7 20 8 20 2 0 -5 -10 -14 -21 -21 -18 -9 -26 -7 -48 8 -49
37 -34 104 23 102 17 0 15 -3 -7 -11z m-353 -58 c16 -20 14 -19 -12 4 -17 17
-32 37 -32 45 1 12 3 11 12 -4 6 -11 20 -31 32 -45z m506 0 c-6 -11 -13 -20
-16 -20 -2 0 0 9 6 20 6 11 13 20 16 20 2 0 0 -9 -6 -20z m-400 -79 c25 -11
39 -21 32 -21 -20 0 -87 37 -102 57 -14 17 -14 17 5 1 11 -9 41 -26 65 -37z
m342 17 c-16 -16 -15 -28 3 -28 22 0 18 -24 -7 -47 -38 -34 -105 -63 -148 -63
l-40 0 0 -42 c1 -76 93 -300 146 -352 30 -30 -25 -18 -85 18 -56 35 -144 116
-125 116 6 0 26 -16 45 -36 27 -28 110 -84 125 -84 2 0 -22 50 -53 110 -51
102 -56 118 -61 195 l-5 84 -23 -16 c-13 -8 -24 -13 -24 -10 0 14 113 117 128
117 9 1 42 12 72 25 64 28 68 29 52 13z m-199 -45 c-18 -2 -48 -2 -65 0 -18 2
-4 4 32 4 36 0 50 -2 33 -4z m-148 -33 c-38 -74 -62 -298 -41 -390 3 -14 8
-37 12 -53 11 -50 22 -35 59 78 8 28 22 59 30 69 21 28 19 17 -10 -48 -14 -31
-25 -63 -25 -72 0 -8 -7 -29 -16 -45 -20 -40 -38 -26 -61 50 -33 110 -9 338
43 419 21 32 27 27 9 -8z"/>
<path d="M760 603 c-27 -5 -88 -75 -70 -81 34 -12 190 55 190 80 0 8 -74 8
-120 1z"/>
</g>
</svg>
